<svg width="32" height="32" viewBox="0 0 32 32" fill="none" xmlns="http://www.w3.org/2000/svg">
<path d="M17.8335 19.7499C17.9753 18.8666 18.1905 17.9967 18.4771 17.1493C18.5836 16.8401 13.4165 16.8402 13.523 17.1498C13.8096 17.997 14.0249 18.8667 14.1668 19.7498C14.0401 20.4591 13.8288 21.1507 13.5374 21.8098C13.3974 22.1251 18.603 22.1248 18.4624 21.8103C18.1713 21.151 17.9602 20.4593 17.8335 19.7499Z" fill="#FFA000"/>
<path d="M27.7554 4.5H21C20.7329 4.5 20.1524 16.4331 20.3877 16.4873C20.6665 16.5425 20.9503 16.5684 21.2344 16.5644C26.0361 16.2908 28.1744 11.9791 28.9956 6.05175C29.0235 5.86729 29.013 5.67904 28.9647 5.49884C28.9164 5.31865 28.8313 5.15039 28.7148 5.00466C28.5983 4.85892 28.453 4.73886 28.2879 4.65201C28.1227 4.56516 27.9414 4.51341 27.7554 4.5ZM26.4785 7.665C25.5288 14.0039 21.6641 14.0766 21.5 14.0766C21.2313 14.0818 21.2237 6.5 21.5 6.5H25.5386C25.6794 6.5078 25.8171 6.54508 25.9427 6.60943C26.0682 6.67379 26.1789 6.76377 26.2675 6.87358C26.3561 6.98339 26.4206 7.11057 26.457 7.24689C26.4933 7.38322 26.5007 7.52566 26.4785 7.665Z" fill="#FFA000"/>
<path d="M11.0078 4.5H4.25248C4.06645 4.51353 3.88523 4.56536 3.72018 4.65225C3.55514 4.73914 3.40984 4.85921 3.2934 5.00492C3.17696 5.15063 3.0919 5.31884 3.04356 5.49898C2.99522 5.67913 2.98463 5.86732 3.01248 6.05175C3.83583 11.9818 5.96948 16.2879 10.7737 16.5644C11.0579 16.5683 11.3418 16.5425 11.6206 16.4873C11.8555 16.4331 11.275 4.5 11.0078 4.5ZM10.5078 14.0766C10.3438 14.0766 6.47903 14.0039 5.52958 7.66455C5.50741 7.52527 5.51472 7.38289 5.55105 7.24662C5.58737 7.11035 5.65189 6.98322 5.74044 6.87345C5.82899 6.76368 5.93959 6.67373 6.0651 6.6094C6.1906 6.54507 6.32821 6.5078 6.46903 6.5H10.5078C10.784 6.5 10.784 14.0766 10.5078 14.0766Z" fill="#FFA000"/>
<path d="M20.6905 27.4018L19.91 23.5H12.09L11.31 27.4018C11.2803 27.5488 20.72 27.5488 20.6905 27.4018Z" fill="#67676B"/>
<path d="M20.5 27H11.5C10.9477 27 10.5 27.4477 10.5 28V30C10.5 30.5523 10.9477 31 11.5 31H20.5C21.0523 31 21.5 30.5523 21.5 30V28C21.5 27.4477 21.0523 27 20.5 27Z" fill="#46464E"/>
<path d="M19.25 21.5H12.25C11.5596 21.5 11 22.0596 11 22.75V23.25C11 23.9404 11.5596 24.5 12.25 24.5H19.25C19.9404 24.5 20.5 23.9404 20.5 23.25V22.75C20.5 22.0596 19.9404 21.5 19.25 21.5Z" fill="#46464E"/>
<path d="M23 3H9V11C9.38555 20.2887 22.6179 20.2816 23 11V3Z" fill="#FFC107"/>
<path d="M16 6C10.3339 6.1779 10.3326 14.3212 16 14.5C21.666 14.3219 21.6674 6.1789 16 6Z" fill="#FFA000"/>
<path d="M16.1414 12.3278V12.9278H15.6336V12.3278C15.3109 12.3276 14.9976 12.2185 14.7447 12.018C14.4918 11.8175 14.3141 11.5375 14.2403 11.2233L15.1131 11.0236C15.1564 11.2016 15.264 11.3574 15.4151 11.461C15.5662 11.5646 15.7503 11.6088 15.9319 11.5851C16.3784 11.6415 16.8146 11.2101 16.4334 10.8868C16.028 10.691 14.8501 10.524 14.7115 10.2046C14.5764 10.024 14.4926 9.81025 14.4689 9.58593C14.4452 9.36162 14.4826 9.13507 14.5771 8.93025C14.6715 8.72542 14.8196 8.54991 15.0055 8.42227C15.1915 8.29463 15.4085 8.2196 15.6336 8.20511V7.70361H16.1414V8.19861C16.4257 8.20305 16.7016 8.29542 16.9312 8.46302C17.1609 8.63063 17.333 8.86524 17.4239 9.13461L16.6239 9.40121C16.5113 8.70001 14.9607 8.79966 15.481 9.53311C16.0606 9.85421 16.9958 9.75361 17.3392 10.3671C17.4558 10.5709 17.5155 10.8022 17.5121 11.037C17.5087 11.2717 17.4424 11.5013 17.32 11.7016C17.1976 11.9019 17.0237 12.0657 16.8163 12.1759C16.609 12.286 16.3759 12.3385 16.1414 12.3278Z" fill="#FFD54F"/>
<path d="M22.5 1H9.5C9.10218 1 8.72064 1.15804 8.43934 1.43934C8.15804 1.72064 8 2.10218 8 2.5C8 2.89782 8.15804 3.27936 8.43934 3.56066C8.72064 3.84196 9.10218 4 9.5 4H22.5C22.8978 4 23.2794 3.84196 23.5607 3.56066C23.842 3.27936 24 2.89782 24 2.5C24 2.10218 23.842 1.72064 23.5607 1.43934C23.2794 1.15804 22.8978 1 22.5 1Z" fill="#FFA000"/>
</svg>
