<svg width="42" height="42" viewBox="0 0 42 42" fill="none" xmlns="http://www.w3.org/2000/svg">
<g clip-path="url(#clip0_7258_2739)">
<path d="M31.5558 0H10.4442C4.67604 0 0 4.67604 0 10.4442V31.5558C0 37.324 4.67604 42 10.4442 42H31.5558C37.324 42 42 37.324 42 31.5558V10.4442C42 4.67604 37.324 0 31.5558 0Z" fill="white"/>
<path d="M22.0851 8.3552L22.0728 8.34371L22.0548 8.3273C22.0384 8.31172 22.0211 8.29613 22.0039 8.28219L21.9941 8.27316C21.9719 8.25512 21.9498 8.23789 21.9276 8.2223L21.917 8.21492C21.894 8.19852 21.8702 8.18293 21.8464 8.16898C21.8202 8.15258 21.7931 8.13781 21.7644 8.12387C21.7101 8.09632 21.6538 8.07282 21.596 8.05353C21.594 8.05285 21.5918 8.0525 21.5897 8.0525C21.5875 8.0525 21.5853 8.05215 21.5832 8.05147C21.5366 8.0361 21.489 8.02364 21.4408 8.01416C21.4285 8.01174 21.416 8.01066 21.4034 8.01066C21.3772 8.01066 21.3501 8.00246 21.3214 8H21.3124C21.2886 8 21.2648 8 21.2402 8H21.2172C21.191 8 21.1656 8 21.1393 8H21.1278C21.1108 8 21.0934 8 21.0758 8.00233C21.0634 8.00397 21.0509 8.00574 21.0384 8.00574C21.0113 8.00574 20.9843 8.01395 20.9564 8.01887C20.9308 8.02352 20.9052 8.02963 20.879 8.03651C20.8759 8.03732 20.8727 8.03773 20.8695 8.03773C20.8662 8.03773 20.8629 8.03819 20.8596 8.0391C20.8062 8.05425 20.7539 8.07314 20.7031 8.09562C20.7013 8.09639 20.6994 8.0968 20.6975 8.0968C20.6957 8.0968 20.6938 8.09718 20.6921 8.09794C20.6394 8.12111 20.5884 8.14815 20.5397 8.17883L20.5306 8.18375C20.4826 8.21471 20.4366 8.24869 20.3928 8.28547L20.3781 8.29859C20.3567 8.31664 20.3362 8.33633 20.3157 8.35602L15.3495 13.3173C15.1222 13.5539 14.9966 13.8702 14.9999 14.1984C15.0032 14.5265 15.1351 14.8403 15.3672 15.0723C15.5993 15.3043 15.9131 15.436 16.2413 15.4391C16.5694 15.4423 16.8857 15.3166 17.1222 15.0891C18.1642 14.0472 19.9457 14.7851 19.9457 16.2587V32.3223C19.9415 32.4895 19.9707 32.6559 20.0318 32.8117C20.0928 32.9675 20.1844 33.1094 20.3012 33.2292C20.418 33.349 20.5576 33.4443 20.7117 33.5093C20.8659 33.5743 21.0315 33.6078 21.1988 33.6078C21.3661 33.6078 21.5317 33.5743 21.6858 33.5093C21.84 33.4443 21.9796 33.349 22.0964 33.2292C22.2131 33.1094 22.3047 32.9675 22.3658 32.8117C22.4268 32.6559 22.4561 32.4895 22.4518 32.3223V15.9132C22.4518 14.5676 24.0787 13.8939 25.03 14.8455C25.2653 15.0806 25.5844 15.2126 25.917 15.2124C26.2496 15.2123 26.5685 15.08 26.8036 14.8447C27.0386 14.6094 27.1706 14.2904 27.1705 13.9578C27.1703 13.6252 27.038 13.3062 26.8027 13.0712L22.0851 8.3552Z" fill="#0D4047"/>
</g>
<defs>
<clipPath id="clip0_7258_2739">
<rect width="42" height="42" rx="21" fill="white"/>
</clipPath>
</defs>
</svg>
