<svg width="24" height="24" viewBox="0 0 24 24" fill="none" xmlns="http://www.w3.org/2000/svg">
<path d="M17.4783 2H5.88904C5.1245 2 4.5 2.62072 4.5 3.38526V19.6147C4.5 20.3793 5.12072 21 5.88526 21H17.4745C18.239 21 18.8598 20.3793 18.8598 19.6147V3.38526C18.8673 2.62072 18.2428 2 17.4783 2ZM7.52789 6.29203C7.52789 6.36394 7.42191 6.40179 7.31972 6.40179C7.21753 6.40179 7.11155 6.36016 7.11155 6.29203V5.75837H6.08207C6.00637 5.75837 5.96096 5.70916 5.96096 5.62968C5.96096 5.60319 5.96853 5.57669 5.98367 5.5502L6.94502 3.66155C6.98665 3.5745 7.06235 3.55558 7.11534 3.55558C7.18347 3.55558 7.32351 3.61992 7.32351 3.6994C7.32351 3.70319 7.32351 3.71454 7.30837 3.74104L6.49084 5.3761H7.11155V4.8992C7.11155 4.81215 7.24024 4.78944 7.31972 4.78944C7.34243 4.78944 7.52789 4.79323 7.52789 4.8992V5.37988H7.7739C7.84582 5.37988 7.88367 5.4745 7.88367 5.56912C7.88367 5.67131 7.81554 5.75458 7.7739 5.75458H7.52789V6.29203ZM15.5594 11.7082C13.9054 12.4159 12.6034 13.7179 11.8956 15.3719C11.8616 15.4552 11.7783 15.5082 11.6875 15.5082C11.5966 15.5082 11.5133 15.4552 11.4793 15.3719C10.7715 13.7179 9.46952 12.4159 7.81554 11.7082C7.73227 11.6741 7.67928 11.5908 7.67928 11.5C7.67928 11.4092 7.73227 11.3259 7.81554 11.2918C9.46952 10.5841 10.7715 9.28207 11.4793 7.62809C11.5133 7.54482 11.5966 7.49183 11.6875 7.49183C11.7783 7.49183 11.8616 7.54482 11.8956 7.62809C12.6034 9.28207 13.9054 10.5841 15.5594 11.2918C15.6426 11.3259 15.6956 11.4092 15.6956 11.5C15.6956 11.5908 15.6426 11.6741 15.5594 11.7082Z" fill="white"/>
</svg>
