<svg width="24" height="24" viewBox="0 0 24 24" fill="none" xmlns="http://www.w3.org/2000/svg">
<path d="M12.9655 19.1117H17.4441L16.3522 18.0197H12.9655C12.8216 18.021 12.684 18.0792 12.5827 18.1814C12.4814 18.2836 12.4246 18.4218 12.4246 18.5657C12.4246 18.7096 12.4814 18.8477 12.5827 18.95C12.684 19.0522 12.8216 19.1103 12.9655 19.1117Z" fill="white"/>
<path d="M12.9655 20.6759H18.3404C18.4267 20.6762 18.512 20.6559 18.5889 20.6167C18.6659 20.5775 18.7324 20.5205 18.783 20.4505L17.9166 19.584H12.9655C12.8207 19.584 12.6818 19.6415 12.5794 19.7439C12.477 19.8463 12.4194 19.9852 12.4194 20.1301C12.4194 20.2749 12.477 20.4138 12.5794 20.5162C12.6818 20.6186 12.8207 20.6762 12.9655 20.6762V20.6759Z" fill="white"/>
<path d="M12.9655 17.547H15.8798L15.2627 16.9299C15.2222 16.8899 15.1979 16.8364 15.1942 16.7796C15.1905 16.7228 15.2078 16.6667 15.2429 16.6218L15.2425 16.6215L15.3702 16.4551H12.9655C12.8207 16.4551 12.6818 16.5126 12.5794 16.615C12.477 16.7174 12.4194 16.8563 12.4194 17.0012C12.4194 17.146 12.477 17.2849 12.5794 17.3873C12.6818 17.4897 12.8207 17.5473 12.9655 17.5473L12.9655 17.547Z" fill="white"/>
<path d="M15.9946 16.999L18.8057 19.8101L17.5306 16.999H15.9946Z" fill="white"/>
<path d="M17.0889 14.9854L15.9036 16.5302H17.3957L17.0889 14.9854Z" fill="white"/>
<path d="M18.3791 13.3301H12.9263C12.7919 13.3303 12.6631 13.3837 12.568 13.4788C12.473 13.5739 12.4196 13.7028 12.4194 13.8372V13.9152C12.4196 14.0496 12.4731 14.1785 12.5681 14.2735C12.6631 14.3685 12.7919 14.422 12.9263 14.4222H16.93L17.032 14.2893C17.0539 14.2608 17.082 14.2377 17.1143 14.2218C17.1465 14.2059 17.182 14.1976 17.2179 14.1976H18.8001C18.8563 14.1142 18.8863 14.0158 18.8861 13.9152V13.8372C18.886 13.7027 18.8325 13.5738 18.7375 13.4788C18.6424 13.3837 18.5136 13.3302 18.3791 13.3301Z" fill="white"/>
<path d="M21.4724 15.3056C21.3277 15.0376 21.1042 14.8204 20.8323 14.6834L20.7994 14.667H20.0396L21.2896 16.2259L21.4724 15.3056Z" fill="white"/>
<path d="M12.4194 15.4366C12.4196 15.5813 12.4771 15.7201 12.5795 15.8225C12.6818 15.9248 12.8206 15.9824 12.9653 15.9826H15.7325L16.5704 14.8906H12.9653C12.8206 14.8908 12.6818 14.9484 12.5795 15.0507C12.4772 15.1531 12.4196 15.2918 12.4194 15.4366Z" fill="white"/>
<path d="M5.80782 15.4583C5.78426 15.693 5.80978 15.93 5.88276 16.1544C5.95573 16.3787 6.07457 16.5854 6.23171 16.7614L6.73726 17.3263L7.36468 16.6989C7.00223 16.5916 6.68414 16.3701 6.45778 16.0674C6.23141 15.7647 6.10888 15.3969 6.10843 15.0189V14.6533C5.94095 14.8915 5.83744 15.1686 5.80782 15.4583Z" fill="white"/>
<path d="M21.945 13.3605L21.9293 13.3291L21.9136 13.3606C21.7242 13.7373 21.4185 14.0431 21.0417 14.2324L21.0103 14.2482L21.0417 14.2639C21.4185 14.4533 21.7242 14.759 21.9136 15.1358L21.9293 15.1672L21.945 15.1358C22.1344 14.759 22.4401 14.4532 22.8169 14.2639L22.8483 14.2482L22.8169 14.2324C22.4401 14.0431 22.1344 13.7373 21.945 13.3605Z" fill="white"/>
<path d="M22.3356 15.4043L22.1397 15.7961C22.1126 15.8506 22.0652 15.8923 22.0078 15.9125C21.9504 15.9326 21.8873 15.9295 21.8321 15.9039L21.7075 16.5305H23.1996L22.3356 15.4043Z" fill="white"/>
<path d="M18.1697 16.5302H20.9335L19.5516 14.8068L18.1697 16.5302Z" fill="white"/>
<path d="M17.813 16.2259L19.0631 14.667H17.5034L17.813 16.2259Z" fill="white"/>
<path d="M12.6743 8.57888C12.6742 8.4999 12.6531 8.42236 12.6132 8.35421C12.5733 8.28605 12.516 8.22972 12.4472 8.19099C12.413 8.19683 12.3779 8.1948 12.3446 8.18506C12.3113 8.17531 12.2807 8.1581 12.255 8.13474C12.2463 8.13423 12.2377 8.13338 12.2289 8.13338H12.0475C11.9854 8.13338 11.9258 8.10869 11.8818 8.06474C11.8379 8.02078 11.8132 7.96117 11.8132 7.89901V6.68176C11.8137 6.2475 11.7068 5.81985 11.5019 5.43695C11.2971 5.05405 11.0006 4.7278 10.639 4.4873C10.2798 5.26276 9.32809 5.7998 8.24842 5.7998C7.25682 5.7998 6.37515 5.35702 5.95712 4.67359C5.66623 4.92119 5.43258 5.22902 5.27234 5.57579C5.11209 5.92256 5.02906 6.29999 5.029 6.68199V7.89891C5.029 7.96107 5.0043 8.02069 4.96035 8.06464C4.9164 8.1086 4.85678 8.13329 4.79462 8.13329H4.61307C4.55456 8.13329 4.49661 8.14481 4.44255 8.16721C4.38849 8.1896 4.33937 8.22242 4.29799 8.2638C4.25661 8.30518 4.22379 8.3543 4.2014 8.40836C4.17901 8.46242 4.16748 8.52037 4.16748 8.57888C4.16748 8.6374 4.17901 8.69534 4.2014 8.7494C4.22379 8.80347 4.25661 8.85259 4.29799 8.89397C4.33937 8.93534 4.38849 8.96816 4.44255 8.99056C4.49661 9.01295 4.55456 9.02448 4.61307 9.02448H4.79439C4.85655 9.02448 4.91616 9.04917 4.96012 9.09312C5.00407 9.13708 5.02876 9.19669 5.02876 9.25885V9.84755C5.0271 10.2941 5.11362 10.7365 5.28334 11.1495C5.45307 11.5626 5.70267 11.938 6.01782 12.2543C6.33298 12.5706 6.70748 12.8216 7.11986 12.9929C7.53224 13.1642 7.97437 13.2523 8.42089 13.2523C8.86742 13.2523 9.30955 13.1642 9.72193 12.9929C10.1343 12.8216 10.5088 12.5706 10.824 12.2543C11.1391 11.938 11.3887 11.5626 11.5584 11.1495C11.7282 10.7365 11.8147 10.2941 11.813 9.84755V9.25885C11.813 9.19669 11.8377 9.13708 11.8817 9.09312C11.9256 9.04917 11.9852 9.02448 12.0474 9.02448H12.2288C12.3469 9.02433 12.4601 8.97733 12.5437 8.8938C12.6272 8.81026 12.6742 8.69701 12.6743 8.57888Z" fill="white"/>
<path d="M12.4194 21.7449C12.4195 21.8753 12.4714 22.0003 12.5636 22.0925C12.6558 22.1847 12.7808 22.2366 12.9112 22.2367H18.3943C18.5247 22.2366 18.6498 22.1847 18.742 22.0925C18.8342 22.0003 18.886 21.8753 18.8861 21.7449V21.6365C18.886 21.5061 18.8342 21.3811 18.742 21.2889C18.6498 21.1967 18.5247 21.1448 18.3943 21.1447H12.9112C12.7808 21.1448 12.6558 21.1967 12.5636 21.2889C12.4714 21.3811 12.4195 21.5061 12.4194 21.6365V21.7449Z" fill="white"/>
<path d="M12.3198 16.2192C12.1233 16.0572 11.9951 15.8273 11.9604 15.5751H11.5087C11.5223 16.1266 11.3255 16.6626 10.9581 17.0742L10.2874 17.8238C10.2661 17.8475 10.2403 17.8667 10.2114 17.8801C10.1825 17.8935 10.1511 17.9009 10.1193 17.9018H10.1127C10.0506 17.9018 9.99099 17.8771 9.94704 17.8332L8.88414 16.7703H8.65479V22.2367H12.0877C11.9982 22.0882 11.9509 21.9182 11.9508 21.7449V21.6365C11.9507 21.4949 11.9821 21.3549 12.0426 21.2268C12.1031 21.0987 12.1912 20.9856 12.3006 20.8956C12.1892 20.7991 12.1002 20.6795 12.0398 20.5451C11.9794 20.4107 11.949 20.2647 11.9508 20.1173C11.9526 19.9699 11.9866 19.8247 12.0503 19.6918C12.114 19.5589 12.206 19.4415 12.3198 19.3479C12.2044 19.2528 12.1114 19.1333 12.0476 18.9981C11.9839 18.8629 11.9508 18.7152 11.9508 18.5657C11.9508 18.4162 11.9839 18.2685 12.0476 18.1333C12.1114 17.9981 12.2044 17.8786 12.3198 17.7835C12.2044 17.6885 12.1114 17.569 12.0476 17.4338C11.9839 17.2986 11.9508 17.1509 11.9508 17.0014C11.9508 16.8519 11.9839 16.7042 12.0476 16.569C12.1114 16.4337 12.2044 16.3143 12.3198 16.2192ZM9.58643 21.0201C9.51267 21.0201 9.44058 20.9982 9.37926 20.9572C9.31794 20.9163 9.27014 20.858 9.24192 20.7899C9.2137 20.7217 9.20631 20.6468 9.2207 20.5744C9.23509 20.5021 9.2706 20.4357 9.32275 20.3835C9.3749 20.3314 9.44134 20.2958 9.51368 20.2815C9.58601 20.2671 9.66099 20.2745 9.72913 20.3027C9.79726 20.3309 9.8555 20.3787 9.89647 20.44C9.93745 20.5013 9.95932 20.5734 9.95932 20.6472C9.9592 20.746 9.91988 20.8408 9.84998 20.9107C9.78007 20.9806 9.68529 21.02 9.58643 21.0201ZM9.58643 19.635C9.51267 19.635 9.44058 19.6131 9.37926 19.5721C9.31794 19.5311 9.27014 19.4729 9.24192 19.4048C9.2137 19.3366 9.20631 19.2617 9.2207 19.1893C9.23509 19.117 9.2706 19.0505 9.32275 18.9984C9.3749 18.9463 9.44134 18.9107 9.51368 18.8963C9.58601 18.882 9.66099 18.8893 9.72913 18.9176C9.79726 18.9458 9.8555 18.9936 9.89647 19.0549C9.93745 19.1162 9.95932 19.1883 9.95932 19.2621C9.9592 19.3609 9.91988 19.4557 9.84998 19.5256C9.78007 19.5955 9.68529 19.6349 9.58643 19.635Z" fill="white"/>
<path d="M21.5725 16.999L20.2974 19.8101L23.1085 16.999H21.5725Z" fill="white"/>
<path d="M18.0454 16.999L19.552 20.3204L21.0585 16.999H18.0454Z" fill="white"/>
<path d="M8.98153 16.3016C9.32151 16.3012 9.64745 16.1659 9.88785 15.9255C10.1283 15.6851 10.2635 15.3592 10.2639 15.0192V13.2393C9.69834 13.5471 9.06468 13.7084 8.42076 13.7084C7.77684 13.7084 7.14318 13.5471 6.57764 13.2393V15.0192C6.57803 15.3592 6.71327 15.6851 6.95367 15.9255C7.19407 16.1659 7.52001 16.3012 7.86 16.3016H8.98153Z" fill="white"/>
<path d="M9.194 3.26331H10.8935C11.2332 3.26294 11.559 3.1278 11.7992 2.88755C12.0395 2.6473 12.1746 2.32156 12.175 1.98179V1.84436C10.6332 2.23075 7.37502 1.8542 6.695 1.76907C6.62257 1.75862 6.54886 1.76103 6.47727 1.7762C6.33177 1.80995 6.20206 1.89211 6.10938 2.00923C6.01669 2.12635 5.96654 2.27147 5.96713 2.42082C5.96679 2.72064 5.84755 3.00807 5.63555 3.22008C5.42356 3.43208 5.13612 3.55134 4.83631 3.55168C4.73424 3.55132 4.63444 3.58178 4.54996 3.63908C4.46549 3.69638 4.40028 3.77785 4.36288 3.87282L4.32842 3.95945C3.89769 5.03727 3.89769 6.23942 4.32842 7.31725L4.47083 7.67514C4.50002 7.67057 4.5297 7.66745 4.55989 7.66576V6.68139C4.56003 6.17763 4.68263 5.68145 4.91713 5.2356C5.15163 4.78974 5.491 4.40758 5.906 4.12201C5.93508 4.10199 5.96831 4.0888 6.0032 4.08343C6.03809 4.07805 6.07375 4.08062 6.10751 4.09096C6.14127 4.10129 6.17225 4.11912 6.19815 4.14311C6.22406 4.1671 6.2442 4.19663 6.25709 4.2295L6.26113 4.23976C6.52363 4.88195 7.3407 5.33036 8.2483 5.33036C9.24303 5.33036 10.0984 4.80887 10.2857 4.08934C10.2882 4.07827 10.2914 4.0674 10.2955 4.05681C10.3074 4.02575 10.3257 3.99758 10.3494 3.97416C10.373 3.95074 10.4013 3.93261 10.4324 3.92097C10.4636 3.90934 10.4968 3.90447 10.53 3.90668C10.5632 3.90889 10.5955 3.91814 10.6249 3.93381C11.1253 4.19711 11.5443 4.59229 11.8363 5.07657C12.1283 5.56085 12.2823 6.11578 12.2817 6.68129V7.63154C12.764 6.25788 12.7321 4.75593 12.1919 3.40398L12.1216 3.22754C11.7947 3.55103 11.3533 3.73236 10.8935 3.73206H9.194C9.13184 3.73206 9.07223 3.70737 9.02827 3.66341C8.98432 3.61946 8.95963 3.55984 8.95963 3.49768C8.95963 3.43552 8.98432 3.37591 9.02827 3.33196C9.07223 3.288 9.13184 3.26331 9.194 3.26331ZM8.25852 3.73206H7.78508C7.72292 3.73206 7.6633 3.70737 7.61935 3.66341C7.5754 3.61946 7.5507 3.55984 7.5507 3.49768C7.5507 3.43552 7.5754 3.37591 7.61935 3.33196C7.6633 3.288 7.72292 3.26331 7.78508 3.26331H8.25852C8.32068 3.26331 8.38029 3.288 8.42424 3.33196C8.4682 3.37591 8.49289 3.43552 8.49289 3.49768C8.49289 3.55984 8.4682 3.61946 8.42424 3.66341C8.38029 3.70737 8.32068 3.73206 8.25852 3.73206Z" fill="white"/>
<path d="M8.18574 16.7704H7.95638L6.89349 17.8333C6.84954 17.8772 6.78993 17.9019 6.72779 17.9019H6.72108C6.68922 17.901 6.65788 17.8937 6.62897 17.8802C6.60006 17.8668 6.57419 17.8476 6.55294 17.8239L5.88216 17.0744C5.51485 16.6627 5.318 16.1267 5.33161 15.5752H3.35204C2.71253 15.5759 2.09942 15.8303 1.64722 16.2825C1.19502 16.7347 0.940661 17.3478 0.939941 17.9873V22.2368H8.18574V16.7704Z" fill="white"/>
<path d="M9.47583 16.6992L10.1033 17.3266L10.6088 16.7617C10.8646 16.4759 11.0161 16.112 11.0385 15.7291C11.0609 15.3463 10.9529 14.9671 10.7322 14.6535V15.0191C10.7318 15.3972 10.6092 15.7649 10.3828 16.0677C10.1564 16.3704 9.83831 16.5919 9.47583 16.6992Z" fill="white"/>
</svg>
