<svg width="24" height="24" viewBox="0 0 24 24" fill="none" xmlns="http://www.w3.org/2000/svg">
<path d="M2.36322 5.63451L3.66634 12.0001H17.7335L19.0413 5.63451C19.646 5.5267 20.0492 4.95014 19.9413 4.34076C19.8335 3.73607 19.257 3.33295 18.6476 3.44076C18.0429 3.54857 17.6398 4.12514 17.7476 4.73451C17.8226 5.16107 18.1367 5.50326 18.5538 5.61576C18.2773 6.85326 17.0538 7.63139 15.8163 7.35482C14.8179 7.13451 14.0867 6.2767 14.0257 5.25482C14.2507 4.82357 14.3913 4.35482 14.4335 3.87201C15.0382 3.75014 15.4273 3.1642 15.3101 2.5642C15.1929 1.9642 14.6023 1.57045 14.0023 1.68764C13.4023 1.80482 13.0085 2.39076 13.1257 2.99545C13.2101 3.4267 13.5382 3.7642 13.9648 3.86264C13.7773 5.66732 12.1601 6.97514 10.3554 6.78764C8.81322 6.62357 7.59447 5.40482 7.43041 3.86264C8.03041 3.72201 8.40072 3.1267 8.2601 2.5267C8.11947 1.9267 7.52416 1.55639 6.92416 1.69701C6.33353 1.83295 5.95853 2.43295 6.09916 3.03295C6.19759 3.45951 6.53978 3.78764 6.96634 3.87201C7.01322 4.35482 7.14916 4.82357 7.37416 5.25014C7.29916 6.51576 6.21166 7.48139 4.95072 7.40639C3.92884 7.34545 3.07103 6.6142 2.84603 5.61576C3.44134 5.45639 3.79291 4.84701 3.63353 4.2517C3.47416 3.65639 2.86478 3.30014 2.26947 3.45951C1.67416 3.61889 1.32259 4.22826 1.48197 4.82357C1.58978 5.24545 1.93666 5.55951 2.36322 5.63451Z" fill="white"/>
<path d="M5.03508 14.2267H16.3695C16.8991 14.2267 17.3538 13.8517 17.4616 13.3361L17.6398 12.4689H3.76477L3.9429 13.3361C4.05071 13.8564 4.5054 14.2267 5.03508 14.2267Z" fill="white"/>
<path d="M18.8768 15.5156L18.7924 15.3516L18.7081 15.5156C18.469 15.9937 18.0846 16.3781 17.6065 16.6172L17.4377 16.7016L17.6065 16.7859C18.0846 17.025 18.469 17.4141 18.7081 17.8875L18.7924 18.0516L18.8768 17.8875C19.1159 17.4094 19.5002 17.025 19.9784 16.7859L20.1471 16.7016L19.9784 16.6172C19.5002 16.3781 19.1159 15.9937 18.8768 15.5156Z" fill="white"/>
<path d="M19.2942 18.0988L19.0036 18.6848C18.9473 18.802 18.8067 18.8488 18.6895 18.7879C18.6426 18.7645 18.6051 18.727 18.5864 18.6848L18.2958 18.0988C18.1036 17.7145 17.7895 17.4004 17.4051 17.2082L16.8192 16.9176C16.702 16.8613 16.6551 16.7207 16.7161 16.6035C16.7395 16.5566 16.777 16.5191 16.8192 16.5004L17.4051 16.2098C17.4754 16.1723 17.5458 16.1348 17.6161 16.0879H1.64575V22.3457H19.7583V17.4988C19.5661 17.6676 19.4114 17.8691 19.2942 18.0988ZM9.08013 17.9207L8.28794 20.3535C8.25044 20.4613 8.08638 20.5129 7.94575 20.5129C7.79575 20.5129 7.63638 20.4613 7.61294 20.3582L7.33638 19.102L7.05981 20.3629C7.03638 20.4613 6.87231 20.5129 6.727 20.5129C6.58638 20.5129 6.41763 20.4613 6.38481 20.3535L5.59263 17.916C5.58794 17.9066 5.58794 17.8973 5.58794 17.8879C5.58794 17.8082 5.76606 17.7098 5.92075 17.7098C5.99575 17.7098 6.04263 17.7332 6.052 17.7754L6.73638 20.077L7.11138 18.4691C7.12544 18.4082 7.22388 18.3613 7.34106 18.3613C7.45825 18.3613 7.55669 18.4082 7.57075 18.4691L7.94575 20.077L8.63013 17.7754C8.64419 17.7332 8.68638 17.7098 8.76138 17.7098C8.91606 17.7098 9.09419 17.8035 9.09419 17.8879C9.08481 17.8973 9.08481 17.9066 9.08013 17.9207ZM11.002 20.3676C11.002 20.4473 10.8801 20.4895 10.7629 20.4895C10.6458 20.4895 10.5239 20.4473 10.5239 20.3676V17.827C10.5239 17.7473 10.6504 17.7098 10.7629 17.7098C10.8801 17.7098 11.002 17.7473 11.002 17.827V20.3676ZM14.5411 20.3676C14.5411 20.4473 14.4192 20.4895 14.302 20.4895C14.1473 20.4895 14.0676 20.452 14.0161 20.3582L13.1254 18.7363V20.3676C13.1254 20.4473 13.0036 20.4895 12.8864 20.4895C12.7692 20.4895 12.6473 20.4473 12.6473 20.3676V17.8316C12.6473 17.7426 12.7926 17.7098 12.8864 17.7098C13.0786 17.7098 13.1395 17.7098 13.2848 17.9816L14.0629 19.4676V17.827C14.0629 17.7473 14.1895 17.7098 14.302 17.7098C14.4145 17.7098 14.5411 17.7473 14.5411 17.827V20.3676Z" fill="white"/>
<path d="M22.5429 13.547C22.5195 13.5001 22.482 13.4626 22.4398 13.4439L22.0742 13.261C21.8492 13.1485 21.6664 12.9657 21.5539 12.7407L21.3711 12.3751C21.3148 12.2579 21.1742 12.211 21.057 12.272C21.0101 12.2954 20.9726 12.3329 20.9539 12.3751L20.7711 12.7407C20.6586 12.9657 20.4757 13.1485 20.2507 13.261L19.8851 13.4439C19.7679 13.5001 19.7211 13.6407 19.782 13.7579C19.8054 13.8048 19.8429 13.8423 19.8851 13.8611L20.2507 14.0439C20.4757 14.1564 20.6586 14.3392 20.7711 14.5642L20.9539 14.9298C21.0101 15.047 21.1507 15.0939 21.2679 15.0329C21.3148 15.0095 21.3523 14.972 21.3711 14.9298L21.5539 14.5642C21.6664 14.3392 21.8492 14.1564 22.0742 14.0439L22.4398 13.8611C22.557 13.8048 22.6039 13.6642 22.5429 13.547Z" fill="white"/>
</svg>
